Coordinates
version=1
nRows=14
nColumns=24
inDegrees=yes

Units are S.I. units (second, meters, Newtons, ...)
Angles are in degrees.

endheader
time	pelvis_tilt	pelvis_list	pelvis_rotation	pelvis_tx	pelvis_ty	pelvis_tz	hip_flexion_r	hip_adduction_r	hip_rotation_r	knee_angle_r	ankle_angle_r	subtalar_angle_r	mtp_angle_r	hip_flexion_l	hip_adduction_l	hip_rotation_l	knee_angle_l	ankle_angle_l	subtalar_angle_l	mtp_angle_l	lumbar_extension	lumbar_bending	lumbar_rotation
      0.41300000	      4.81604062	     -0.99453469	      4.38266777	     -0.74597579	      0.90773898	      0.30116307	     23.54158696	      2.24239470	     -8.42533631	    -25.06434581	      7.76284407	      4.88863869	      0.65121099	    -23.27171387	     -0.78438643	      0.18639187	     -5.78936475	     14.72402418	     -0.52902061	     10.06097758	    -14.48348897	      0.76614814	     -8.79517774
      0.41716667	      4.80675343	     -0.97279011	      4.58223690	     -0.74010598	      0.90654212	      0.30124207	     23.40887992	      2.30819460	     -8.18078951	    -24.97159323	      7.85720099	      4.82159711	      0.65219922	    -23.24924170	     -0.90747884	      0.27192895	     -6.62755460	     14.99238009	     -0.27177012	     10.11112968	    -14.43738114	      0.78065250	     -8.87681842
      0.42133333	      4.79896233	     -0.94719000	      4.76783664	     -0.73422994	      0.90535098	      0.30134710	     23.28432932	      2.37526221	     -7.94108779	    -24.99219392	      7.96440752	      4.73067052	      0.66016599	    -23.17695289	     -1.02710898	      0.28741461	     -7.57910779	     15.25027597	      0.06547390	     10.21492701	    -14.39917892	      0.80643219	     -8.95106496
      0.42550000	      4.78740011	     -0.92397554	      4.95197153	     -0.72833549	      0.90418763	      0.30147423	     23.15837398	      2.44939373	     -7.71343822	    -25.08819417	      8.04081916	      4.58533939	      0.67559702	    -23.06794324	     -1.15063598	      0.31639250	     -8.59608971	     15.47104295	      0.37394485	     10.36687348	    -14.35610749	      0.83603736	     -9.00043886
      0.42966667	      4.77345226	     -0.90159490	      5.12754701	     -0.72242976	      0.90303779	      0.30163759	     23.04044387	      2.53134212	     -7.49997339	    -25.27217810	      8.10447191	      4.38306823	      0.70417436	    -22.91024432	     -1.27665591	      0.29957823	     -9.70781235	     15.66580650	      0.71634178	     10.60366253	    -14.31359233	      0.87382735	     -9.03969437
      0.43383333	      4.74391007	     -0.88114251	      5.30307657	     -0.71651315	      0.90191744	      0.30183628	     22.92664380	      2.62195641	     -7.28810541	    -25.49572675	      8.12664137	      4.14179881	      0.74024104	    -22.69657161	     -1.40491096	      0.32268522	    -10.90115774	     15.81919734	      1.00265446	     10.88227397	    -14.24300903	      0.89138191	     -9.05708427
      0.43800000	      4.78800872	     -0.90528612	      5.47942654	     -0.71056071	      0.90092702	      0.30205491	     22.71745189	      2.76809244	     -7.12931142	    -25.74281018	      8.12500925	      3.90357298	      0.88154682	    -22.50773065	     -1.60273573	      0.20895649	    -12.20462592	     16.01585082	      1.46017040	     11.91686033	    -14.26790808	      0.98271063	     -9.03032015
      0.44216667	      4.71571450	     -0.85907685	      5.62804902	     -0.70463944	      0.89980679	      0.30232815	     22.67855656	      2.84379336	     -6.91901782	    -26.14438932	      8.18221353	      3.50594518	      0.95459966	    -22.17491945	     -1.68982585	      0.26376073	    -13.53957766	     15.97758333	      1.63587171	     12.42923055	    -14.14464049	      0.97910319	     -9.04198687
      0.44633333	      4.66334219	     -0.84546353	      5.78280751	     -0.69870930	      0.89879491	      0.30262900	     22.58297416	      2.96143342	     -6.72430910	    -26.50364236	      8.15279279	      3.15768145	      0.99799332	    -21.81107630	     -1.81473579	      0.32589508	    -14.97705039	     15.98483692	      1.75410972	     12.74563719	    -14.04204939	      0.97436130	     -8.98465513
      0.45050000	      4.68276249	     -0.87563323	      5.93153746	     -0.69274900	      0.89791120	      0.30297275	     22.40868228	      3.14229007	     -6.55448797	    -26.89439691	      8.13597397	      2.66300605	      1.66583190	    -21.47708126	     -2.01033256	      0.26151089	    -16.49300328	     15.87230146	      1.97951385	     17.57332464	    -14.03331245	      1.06968827	     -8.89195397
      0.45466667	      4.61583821	     -0.85120970	      6.06504190	     -0.68682824	      0.89695170	      0.30331884	     22.36633922	      3.24428618	     -6.41323638	    -27.40714665	      8.21029091	      2.35046777	      1.67080456	    -21.00077545	     -2.11608009	      0.30878803	    -18.11028113	     15.74772597	      2.07820200	     17.64691883	    -13.91936147	      1.06729321	     -8.83571506
      0.45883333	      4.57444726	     -0.85593414	      6.19043891	     -0.68090987	      0.89608051	      0.30369833	     22.29048451	      3.39081603	     -6.26146841	    -27.92290656	      8.28566378	      1.92724333	      1.68083584	    -20.50002673	     -2.25846522	      0.30962490	    -19.81833522	     15.54769142	      2.20796648	     17.78206961	    -13.83722547	      1.10688907	     -8.74080921
      0.46300000	      4.58769248	     -0.92414111	      6.31111971	     -0.67496031	      0.89531741	      0.30413678	     22.14625827	      3.62037329	     -6.12095940	    -28.42779469	      8.38604209	      1.46671246	      1.72791233	    -19.99394304	     -2.50019665	      0.16894963	    -21.64245954	     15.34789729	      2.54792677	     18.50618549	    -13.81951365	      1.24339659	     -8.59558455
      0.46716667	      4.51280897	     -0.91002750	      6.40601069	     -0.66907976	      0.89452200	      0.30456279	     22.13121852	      3.74791128	     -5.95586360	    -29.03210595	      8.53902312	      1.04916210	      1.74169731	    -19.37230438	     -2.59345318	      0.24291812	    -23.47739468	     14.91709804	      2.45363840	     18.70758124	    -13.69852884	      1.24134022	     -8.47717154
